<svg width="8" height="6" viewBox="0 0 8 6" fill="none" xmlns="http://www.w3.org/2000/svg">
<path id="Hide" d="M4.99319 3.06738L5.44756 2.61301C5.48063 2.7367 5.5 2.86601 5.5 3.00001C5.5 3.82713 4.82713 4.5 4 4.5C3.866 4.5 3.73669 4.48063 3.613 4.44757L4.06738 3.99319C4.56419 3.95932 4.95931 3.56419 4.99319 3.06738ZM7.9685 2.87857C7.93775 2.82326 7.50163 2.05907 6.64913 1.41145L6.28531 1.77526C6.90694 2.23232 7.30081 2.76538 7.45587 3.00038C7.15956 3.45157 5.99719 5 4 5C3.7005 5 3.422 4.96169 3.15994 4.90057L2.74913 5.31138C3.12681 5.42719 3.54194 5.5 4 5.5C6.61706 5.5 7.91456 3.21851 7.9685 3.12144C8.0105 3.04588 8.0105 2.95413 7.9685 2.87857ZM6.92675 0.426764L1.42675 5.92675C1.37794 5.97556 1.31394 6 1.25 6C1.18606 6 1.12206 5.97556 1.07325 5.92675C0.975563 5.82906 0.975563 5.67088 1.07325 5.57325L1.773 4.8735C0.64175 4.19057 0.0669375 3.18526 0.0315 3.12144C-0.0105 3.04588 -0.0105 2.95407 0.0315 2.87851C0.0854375 2.78151 1.38294 0.500014 4 0.500014C4.67669 0.500014 5.26281 0.654389 5.76388 0.882638L6.57325 0.0732654C6.67094 -0.0244218 6.82913 -0.0244218 6.92675 0.0732654C7.02437 0.170953 7.02444 0.32914 6.92675 0.426764ZM2.14581 4.50069L2.77875 3.86776C2.60394 3.62251 2.5 3.32344 2.5 3.00001C2.5 2.17288 3.17287 1.50001 4 1.50001C4.32344 1.50001 4.6225 1.60395 4.86775 1.7787L5.37956 1.26689C4.97519 1.10495 4.51569 1.00001 4 1.00001C2.00281 1.00001 0.840437 2.54845 0.544187 2.99963C0.732313 3.28476 1.27306 4.00651 2.14581 4.50069ZM3.14169 3.50476L4.50475 2.1417C4.35606 2.05388 4.18488 2.00001 4 2.00001C3.44863 2.00001 3 2.44863 3 3.00001C3 3.18488 3.05387 3.35607 3.14169 3.50476Z" fill="black" fill-opacity="0.5"/>
</svg>
