<svg width="11" height="11" viewBox="0 0 11 11" fill="none" xmlns="http://www.w3.org/2000/svg">
<g id="19">
<path id="Vector" d="M5.4937 -5.14984e-05C5.6498 -0.000959396 5.80264 0.0446157 5.93272 0.130863C6.0628 0.21711 6.16424 0.34012 6.2241 0.484213C6.28396 0.628305 6.29953 0.78695 6.26883 0.93992C6.23812 1.09289 6.16253 1.23326 6.0517 1.34312L1.8864 5.49833L6.0517 9.65354C6.18045 9.80381 6.24773 9.9971 6.24009 10.1948C6.23245 10.3925 6.15045 10.58 6.01049 10.7199C5.87052 10.8598 5.68289 10.9417 5.4851 10.9494C5.28731 10.957 5.09392 10.8898 4.94357 10.7611L0.22814 6.04817C0.0817647 5.901 -0.000394821 5.70192 -0.000394821 5.49441C-0.000394821 5.28689 0.0817647 5.08781 0.22814 4.94064L4.94357 0.227739C5.08995 0.0826254 5.28753 0.000815392 5.4937 -5.14984e-05Z" fill="#545454"/>
<path id="Vector_2" d="M10.2095 1.23978e-05C10.3656 -0.000894547 10.5185 0.0446806 10.6485 0.130928C10.7786 0.217175 10.8801 0.340185 10.9399 0.484278C10.9998 0.62837 11.0154 0.787014 10.9846 0.939985C10.9539 1.09296 10.8784 1.23332 10.7675 1.34319L6.60222 5.4984L10.7675 9.65361C10.9155 9.80152 10.9986 10.0021 10.9986 10.2113C10.9986 10.4205 10.9155 10.6211 10.7675 10.769C10.6195 10.9169 10.4188 11 10.2095 11C10.0002 11 9.79952 10.9169 9.65153 10.769L4.9361 6.05609C4.78973 5.90892 4.70757 5.70984 4.70757 5.50233C4.70757 5.29481 4.78973 5.09573 4.9361 4.94856L9.65153 0.235657C9.72432 0.161438 9.81112 0.102395 9.9069 0.061945C10.0027 0.0214949 10.1055 0.000444412 10.2095 1.23978e-05Z" fill="#545454"/>
</g>
</svg>
