<svg width="20" height="20" viewBox="0 0 20 20" fill="none" xmlns="http://www.w3.org/2000/svg">
<g id="Document">
<g id="Group">
<g id="Group_2">
<path id="Vector" d="M8.74306 6.96061C8.44122 6.66475 7.9745 6.68866 7.69782 6.97089L6.73891 7.94886L6.47571 7.67351C6.18778 7.37218 5.71946 7.37397 5.43071 7.64987C5.1361 7.93144 5.12551 8.40023 5.40708 8.69488L6.19782 9.52218C6.48317 9.82078 6.9647 9.82999 7.25993 9.52898L8.75333 8.00585C9.03935 7.71413 9.03474 7.24663 8.74306 6.96061ZM8.33485 7.59558L6.84145 9.1187C6.81364 9.14702 6.77446 9.1646 6.73114 9.1646C6.68985 9.16433 6.64989 9.1471 6.62138 9.1173L5.83063 8.28999C5.77231 8.22894 5.77446 8.13183 5.83551 8.07347C5.89669 8.01503 5.99356 8.01714 6.05204 8.07835L6.52438 8.57253C6.63774 8.69113 6.82849 8.69445 6.9454 8.57523L8.11626 7.38112C8.17568 7.32058 8.27243 7.31983 8.33278 7.37905C8.39314 7.43819 8.39431 7.53499 8.33485 7.59558Z" fill="#666666"/>
</g>
</g>
<g id="Group_3">
<g id="Group_4">
<path id="Vector_2" d="M8.74306 10.4185C8.45165 10.1327 7.98388 10.137 7.69782 10.4287L6.73891 11.4067L6.47571 11.1313C6.19204 10.8344 5.7243 10.8272 5.43071 11.1077C5.1361 11.3893 5.12551 11.8581 5.40708 12.1527L6.19782 12.98C6.48641 13.282 6.96778 13.2847 7.25993 12.9868L8.75333 11.4637C9.03927 11.172 9.03474 10.7045 8.74306 10.4185ZM8.33485 11.0534L6.84145 12.5765C6.78059 12.6385 6.68087 12.6373 6.62138 12.5751L5.83063 11.7477C5.77231 11.6867 5.77446 11.5896 5.83551 11.5313C5.89665 11.4728 5.99356 11.4749 6.05204 11.5361L6.52438 12.0303C6.63536 12.1464 6.82575 12.155 6.9454 12.033L8.11626 10.8389C8.17575 10.7783 8.27263 10.7778 8.33278 10.8368C8.39314 10.896 8.39431 10.9928 8.33485 11.0534Z" fill="#666666"/>
</g>
</g>
<g id="Group_5">
<g id="Group_6">
<path id="Vector_3" d="M8.74302 13.8762C8.45165 13.5905 7.98376 13.5948 7.69782 13.8865L6.73891 14.8645L6.47571 14.5891C6.19208 14.2923 5.72419 14.285 5.43071 14.5655C5.1361 14.8471 5.12551 15.3159 5.40708 15.6105L6.19778 16.4378C6.33528 16.5817 6.52829 16.665 6.72927 16.6663H6.73212C6.92938 16.6663 7.12177 16.5855 7.25989 16.4446L8.75329 14.9215C9.03927 14.6298 9.03474 14.1623 8.74302 13.8762ZM8.33485 14.5112L6.84145 16.0343C6.81282 16.0635 6.77298 16.0802 6.73208 16.0802C6.6904 16.0802 6.65005 16.0629 6.62138 16.0329L5.83063 15.2056C5.77231 15.1446 5.77446 15.0475 5.83551 14.9891C5.89665 14.9307 5.99356 14.9328 6.05204 14.994L6.52438 15.4882C6.64161 15.6108 6.83333 15.6052 6.9454 15.4909L8.11626 14.2968C8.17614 14.2358 8.27306 14.2361 8.33278 14.2947C8.39329 14.3539 8.39415 14.4507 8.33485 14.5112Z" fill="#666666"/>
</g>
</g>
<g id="Group_7">
<g id="Group_8">
<path id="Vector_4" d="M14.3076 7.95703H10C9.83816 7.95703 9.70703 8.0882 9.70703 8.25C9.70703 8.4118 9.8382 8.54297 10 8.54297H14.3076C14.4695 8.54297 14.6006 8.4118 14.6006 8.25C14.6006 8.08824 14.4695 7.95703 14.3076 7.95703Z" fill="#666666"/>
</g>
</g>
<g id="Group_9">
<g id="Group_10">
<path id="Vector_5" d="M14.3076 11.5125H10C9.83816 11.5125 9.70703 11.6436 9.70703 11.8054C9.70703 11.9672 9.8382 12.0984 10 12.0984H14.3076C14.4695 12.0984 14.6006 11.9672 14.6006 11.8054C14.6006 11.6436 14.4695 11.5125 14.3076 11.5125Z" fill="#666666"/>
</g>
</g>
<g id="Group_11">
<g id="Group_12">
<path id="Vector_6" d="M14.3076 15.0679H10C9.83816 15.0679 9.70703 15.199 9.70703 15.3608C9.70703 15.5226 9.8382 15.6538 10 15.6538H14.3076C14.4695 15.6538 14.6006 15.5226 14.6006 15.3608C14.6006 15.1991 14.4695 15.0679 14.3076 15.0679Z" fill="#666666"/>
</g>
</g>
<g id="Group_13">
<g id="Group_14">
<path id="Vector_7" d="M17.1267 11.6543C16.9649 11.6543 16.8337 11.7855 16.8337 11.9473V18.6461C16.8337 19.0696 16.4892 19.4141 16.0658 19.4141H3.93436C3.51092 19.4141 3.16647 19.0695 3.16647 18.6461V3.53415C3.16647 3.11071 3.51092 2.76622 3.93436 2.76622H6.41624V2.92938V2.93211C6.41624 3.35215 6.758 3.69387 7.178 3.69387H7.18073H7.288V4.21579H4.39659C4.08991 4.21579 3.84041 4.46528 3.84041 4.77196V18.2378C3.84041 18.5445 4.08991 18.794 4.39659 18.794H9.31636C9.4782 18.794 9.60933 18.6628 9.60933 18.501C9.60933 18.3392 9.4782 18.208 9.31636 18.208H4.42643V4.80173H7.288V5.26317C7.288 5.61966 7.57796 5.90962 7.93444 5.90962H12.0656C12.4221 5.90962 12.7121 5.61966 12.7121 5.26317V4.80173H15.5736V18.208H10.6837C10.5218 18.208 10.3907 18.3391 10.3907 18.5009C10.3907 18.6627 10.5218 18.7939 10.6837 18.7939H15.6034C15.9102 18.7939 16.1596 18.5444 16.1596 18.2377V4.77192C16.1596 4.46528 15.9101 4.21575 15.6034 4.21575H12.7121V3.69387H12.8194H12.8221C13.2421 3.69387 13.5838 3.35212 13.5838 2.93211V2.93012C13.5838 2.92985 13.5839 2.92961 13.5839 2.92938V2.76622H16.0657C16.4892 2.76622 16.8336 3.11075 16.8336 3.53415V10.5801C16.8337 10.7419 16.9648 10.873 17.1266 10.873C17.2885 10.873 17.4196 10.7419 17.4196 10.5801V3.53415C17.4196 2.78758 16.8123 2.18024 16.0657 2.18024H13.5838V2.00266C13.5838 1.58262 13.2421 1.2409 12.8221 1.2409H11.2266V0.764494C11.2266 0.342969 10.8836 0 10.4621 0H9.53808C9.11652 0 8.77363 0.342969 8.77363 0.764494V1.24082H7.17808C6.75804 1.24082 6.41632 1.58254 6.41632 2.00258V2.18016H3.93444C3.18791 2.18016 2.58057 2.78751 2.58057 3.53407V18.6461C2.58057 19.3926 3.18791 20 3.93444 20H16.0659C16.8124 20 17.4197 19.3926 17.4197 18.6461V11.9473C17.4197 11.7855 17.2885 11.6543 17.1267 11.6543ZM12.1261 5.26317C12.1261 5.29653 12.099 5.32364 12.0656 5.32364H7.93444C7.90108 5.32364 7.87397 5.29649 7.87397 5.26317V4.80173H12.1261V5.26317H12.1261ZM12.1261 4.21579H12.1261H7.87401V3.69387H12.1262V4.21579H12.1261ZM9.35949 0.764494C9.35953 0.667697 9.44128 0.585978 9.538 0.585978H10.462C10.5588 0.585978 10.6405 0.667736 10.6405 0.764494V1.24082H9.35949V0.764494ZM7.00218 2.00262C7.00218 1.90735 7.08268 1.82684 7.17796 1.82684C7.42772 1.82684 12.5746 1.82684 12.822 1.82684C12.9173 1.82684 12.9978 1.90735 12.9978 2.00262V2.92969C12.9976 3.02629 12.916 3.10786 12.8193 3.10786C12.6358 3.10786 7.29835 3.10786 7.18069 3.10786C7.0839 3.10786 7.00218 3.0261 7.00218 2.92934C7.00218 2.5995 7.00218 2.34899 7.00218 2.00262Z" fill="#666666"/>
</g>
</g>
</g>
</svg>
