<svg width="20" height="20" viewBox="0 0 20 20" fill="none" xmlns="http://www.w3.org/2000/svg">
<g id="Price tag" clip-path="url(#clip0_2478_416)">
<g id="Group">
<path id="Vector" d="M7.95154 13.477L10.7137 5.19058C10.816 4.88358 10.6501 4.55175 10.3431 4.4494C10.0361 4.3471 9.70424 4.513 9.60189 4.81999L6.83979 13.1064C6.73748 13.4134 6.90338 13.7453 7.21037 13.8476C7.27182 13.8681 7.33432 13.8778 7.39572 13.8778C7.64104 13.8778 7.86967 13.7226 7.95154 13.477Z" fill="#666666"/>
<path id="Vector_2" d="M12.0913 10.9062C13.0606 10.9062 13.8491 10.1177 13.8491 9.14844C13.8491 8.17918 13.0606 7.39062 12.0913 7.39062C11.1221 7.39062 10.3335 8.17918 10.3335 9.14844C10.3335 10.1177 11.1221 10.9062 12.0913 10.9062ZM12.0913 8.5625C12.4144 8.5625 12.6772 8.82535 12.6772 9.14844C12.6772 9.47152 12.4144 9.73438 12.0913 9.73438C11.7682 9.73438 11.5054 9.47152 11.5054 9.14844C11.5054 8.82535 11.7682 8.5625 12.0913 8.5625Z" fill="#666666"/>
<path id="Vector_3" d="M5.4624 7.39062C4.49314 7.39062 3.70459 8.17918 3.70459 9.14844C3.70459 10.1177 4.49314 10.9062 5.4624 10.9062C6.43166 10.9062 7.22021 10.1177 7.22021 9.14844C7.22021 8.17918 6.4317 7.39062 5.4624 7.39062ZM5.4624 9.73438C5.13932 9.73438 4.87646 9.47152 4.87646 9.14844C4.87646 8.82535 5.13932 8.5625 5.4624 8.5625C5.78549 8.5625 6.04834 8.82535 6.04834 9.14844C6.04834 9.47152 5.78553 9.73438 5.4624 9.73438Z" fill="#666666"/>
<path id="Vector_4" d="M19.8833 7.26586L17.84 4.54152L17.9198 3.98359C17.9458 3.80102 17.8845 3.6168 17.754 3.48641L16.5111 2.24344L17.754 1.00047C17.9828 0.77168 17.9828 0.400664 17.754 0.171836C17.5252 -0.0569531 17.1542 -0.0569531 16.9254 0.171836L15.6824 1.4148L14.4395 0.171836C14.3091 0.0414062 14.1249 -0.0197656 13.9423 0.00609374L8.14177 0.834727C8.01626 0.852656 7.89997 0.91082 7.81032 1.00047L0.62876 8.18203C-0.208936 9.01969 -0.208936 10.3827 0.62876 11.2204L6.70544 17.2971C6.82974 17.4214 6.96583 17.5268 7.10985 17.6142V17.8518C7.10985 19.0364 8.07364 20.0002 9.25829 20.0002H17.852C19.0367 20.0002 20.0005 19.0364 20.0005 17.8518V7.61742C20.0005 7.49066 19.9593 7.36727 19.8833 7.26586ZM1.45739 10.3918C1.07661 10.011 1.07661 9.39145 1.45739 9.01066L8.50083 1.96723L13.8179 1.20766L14.8538 2.24348L14.0251 3.07211L13.6108 2.65777C13.382 2.42898 13.011 2.42898 12.7822 2.65777C12.5533 2.88656 12.5533 3.25758 12.7822 3.48641L14.4395 5.14371C14.5539 5.25813 14.7038 5.31535 14.8538 5.31535C15.0037 5.31535 15.1537 5.25813 15.2681 5.14371C15.4969 4.91492 15.4969 4.54391 15.2681 4.31508L14.8537 3.90074L15.6824 3.07211L16.7182 4.10793L15.9586 9.42504L8.91517 16.4685C8.73071 16.6529 8.48548 16.7545 8.22462 16.7545C7.96376 16.7545 7.71853 16.6529 7.53407 16.4685L1.45739 10.3918ZM18.8286 17.8518C18.8286 18.3903 18.3905 18.8284 17.852 18.8284H9.25829C8.74407 18.8284 8.32173 18.4288 8.28466 17.9239C8.81462 17.9092 9.34021 17.7007 9.74376 17.2971L16.9253 10.1155C17.015 10.0259 17.0731 9.90961 17.0911 9.7841L17.6056 6.18215L18.8286 7.81273V17.8518Z" fill="#666666"/>
</g>
</g>
<defs>
<clipPath id="clip0_2478_416">
<rect width="20" height="20" fill="white"/>
</clipPath>
</defs>
</svg>
