<svg width="20" height="20" viewBox="0 0 20 20" fill="none" xmlns="http://www.w3.org/2000/svg">
<g id="Recruitment" clip-path="url(#clip0_2478_250)">
<g id="Group">
<g id="Group_2">
<path id="Vector" d="M18.0052 10.4879C18.182 10.2259 18.2852 9.91043 18.2852 9.57129V9.25797C18.2852 8.3516 17.5478 7.61418 16.6414 7.61418C16.1892 7.61418 15.7791 7.79781 15.4816 8.09438C14.7118 5.80504 12.5454 4.15137 10 4.15137C7.45457 4.15137 5.2882 5.805 4.51844 8.09438C4.22094 7.79781 3.81082 7.61418 3.35855 7.61418C2.45219 7.61418 1.71477 8.3516 1.71477 9.25797V9.57129C1.71477 9.91043 1.81805 10.2259 1.99477 10.4879C0.856914 10.7277 0 11.7392 0 12.9473V13.7338C0 13.9495 0.174922 14.1245 0.390625 14.1245H2.42188C2.63758 14.1245 2.8125 13.9495 2.8125 13.7338C2.8125 13.5181 2.63758 13.3432 2.42188 13.3432H0.78125V12.9473C0.78125 11.9921 1.55836 11.215 2.51355 11.215H4.36234C4.51227 11.8745 4.77504 12.4915 5.12957 13.0444L0.672578 17.5014C0.101875 18.0721 0.101875 19.0008 0.672617 19.5716C0.958008 19.857 1.33281 19.9996 1.7077 19.9996C2.08258 19.9996 2.45746 19.857 2.74285 19.5716L5.2 17.1144C5.35254 16.9619 5.35254 16.7145 5.2 16.562C5.04742 16.4095 4.80016 16.4095 4.64754 16.562L2.19043 19.0191C1.92422 19.2853 1.49117 19.2853 1.225 19.0192C0.958867 18.753 0.958867 18.3199 1.225 18.0538L5.60027 13.6785C6.66148 14.9231 8.24004 15.7139 10 15.7139C12.7472 15.7139 15.0527 13.7877 15.6377 11.215H17.4864C18.4416 11.215 19.2188 11.9921 19.2188 12.9473V13.3432H15.5469C15.3312 13.3432 15.1562 13.5181 15.1562 13.7338C15.1562 13.9495 15.3312 14.1245 15.5469 14.1245H19.6094C19.8251 14.1245 20 13.9495 20 13.7338V12.9473C20 11.7392 19.1431 10.7277 18.0052 10.4879ZM4.22109 9.57133C4.22109 10.0469 3.83418 10.4338 3.35855 10.4338C2.88293 10.4338 2.49602 10.0469 2.49602 9.57133V9.25801C2.49602 8.78238 2.88293 8.39547 3.35855 8.39547C3.83418 8.39547 4.22109 8.78238 4.22109 9.25801V9.57133ZM10 14.9326C7.24301 14.9326 5 12.6896 5 9.93262C5 7.17562 7.24301 4.93262 10 4.93262C12.757 4.93262 15 7.17562 15 9.93262C15 12.6896 12.757 14.9326 10 14.9326ZM17.5039 9.57133C17.5039 10.0469 17.117 10.4338 16.6414 10.4338C16.1658 10.4338 15.7789 10.0469 15.7789 9.57133V9.25801C15.7789 8.78238 16.1658 8.39547 16.6414 8.39547C17.117 8.39547 17.5039 8.78238 17.5039 9.25801V9.57133Z" fill="#666666"/>
</g>
</g>
<g id="Group_3">
<g id="Group_4">
<path id="Vector_2" d="M10 5.71387C7.67375 5.71387 5.78125 7.60637 5.78125 9.93262C5.78125 11.14 6.29125 12.2305 7.10695 13.0002C7.1209 13.0153 7.13586 13.0295 7.15227 13.0424C7.90328 13.7307 8.9034 14.1514 10 14.1514C11.0966 14.1514 12.0967 13.7307 12.8477 13.0424C12.8641 13.0295 12.8791 13.0153 12.893 13.0002C13.7088 12.2305 14.2188 11.14 14.2188 9.93262C14.2188 7.60641 12.3263 5.71387 10 5.71387ZM10 13.3701C9.19676 13.3701 8.45707 13.0931 7.87121 12.6297C8.28625 11.8444 9.09508 11.3503 10 11.3503C10.9049 11.3503 11.7138 11.8444 12.1288 12.6297C11.5429 13.0931 10.8032 13.3701 10 13.3701ZM9.17684 9.7459V9.44242C9.17684 8.98852 9.54609 8.61926 10 8.61926C10.4539 8.61926 10.8232 8.98852 10.8232 9.44242V9.7459C10.8232 10.1998 10.4539 10.5691 10 10.5691C9.54609 10.5691 9.17684 10.1998 9.17684 9.7459ZM12.7002 12.0576C12.3423 11.4866 11.8186 11.0512 11.2055 10.8029C11.4535 10.5204 11.6044 10.1505 11.6044 9.74594V9.44246C11.6044 8.55781 10.8846 7.83805 10 7.83805C9.11535 7.83805 8.39559 8.55781 8.39559 9.44246V9.74594C8.39559 10.1505 8.54645 10.5204 8.79449 10.8029C8.18145 11.0512 7.6577 11.4866 7.2998 12.0576C6.83824 11.4723 6.5625 10.7341 6.5625 9.93262C6.5625 8.03719 8.10457 6.49512 10 6.49512C11.8954 6.49512 13.4375 8.03719 13.4375 9.93262C13.4375 10.7341 13.1618 11.4723 12.7002 12.0576Z" fill="#666666"/>
</g>
</g>
<g id="Group_5">
<g id="Group_6">
<path id="Vector_3" d="M6.24492 15.517C6.17227 15.4444 6.07148 15.4026 5.96875 15.4026C5.86602 15.4026 5.76523 15.4444 5.69258 15.517C5.61996 15.5897 5.57812 15.6905 5.57812 15.7932C5.57812 15.8959 5.61992 15.9967 5.69258 16.0694C5.76523 16.142 5.86602 16.1838 5.96875 16.1838C6.07148 16.1838 6.17227 16.142 6.24492 16.0694C6.31754 15.9967 6.35938 15.8959 6.35938 15.7932C6.35938 15.6905 6.31758 15.5897 6.24492 15.517Z" fill="#666666"/>
</g>
</g>
<g id="Group_7">
<g id="Group_8">
<path id="Vector_4" d="M10.0078 0.000244141C9.79211 0.000244141 9.61719 0.175166 9.61719 0.390869V1.71993C9.61719 1.93567 9.79211 2.11056 10.0078 2.11056C10.2235 2.11056 10.3984 1.93563 10.3984 1.71993V0.390869C10.3984 0.175166 10.2235 0.000244141 10.0078 0.000244141Z" fill="#666666"/>
</g>
</g>
<g id="Group_9">
<g id="Group_10">
<path id="Vector_5" d="M10.2839 2.73188C10.2113 2.65923 10.1109 2.61743 10.0078 2.61743C9.90504 2.61743 9.8043 2.65919 9.73164 2.73188C9.65898 2.80458 9.61719 2.90532 9.61719 3.00806C9.61719 3.11079 9.65895 3.21157 9.73164 3.28419C9.8043 3.35685 9.90504 3.39868 10.0078 3.39868C10.1109 3.39868 10.2113 3.35688 10.2839 3.28419C10.3566 3.21157 10.3984 3.11079 10.3984 3.00806C10.3984 2.90532 10.3566 2.80454 10.2839 2.73188Z" fill="#666666"/>
</g>
</g>
<g id="Group_11">
<g id="Group_12">
<path id="Vector_6" d="M13.3197 1.53259C13.1672 1.38009 12.9199 1.38009 12.7673 1.53259L12.0807 2.21915C11.9282 2.37169 11.9282 2.61903 12.0807 2.77161C12.157 2.84786 12.257 2.88603 12.357 2.88603C12.457 2.88603 12.5569 2.84786 12.6332 2.77161L13.3197 2.08505C13.4723 1.93251 13.4723 1.68517 13.3197 1.53259Z" fill="#666666"/>
</g>
</g>
<g id="Group_13">
<g id="Group_14">
<path id="Vector_7" d="M7.92595 2.2238L7.23278 1.53063C7.0802 1.37813 6.83294 1.37813 6.68032 1.53063C6.52778 1.68317 6.52778 1.93052 6.68032 2.0831L7.37353 2.77626C7.44981 2.85251 7.54978 2.89067 7.64974 2.89067C7.7497 2.89067 7.84966 2.85251 7.92595 2.77626C8.07849 2.62372 8.07849 2.37638 7.92595 2.2238Z" fill="#666666"/>
</g>
</g>
</g>
<defs>
<clipPath id="clip0_2478_250">
<rect width="20" height="20" fill="white"/>
</clipPath>
</defs>
</svg>
