<svg width="21" height="20" viewBox="0 0 21 20" fill="none" xmlns="http://www.w3.org/2000/svg">
<g id="notifications.svg">
<g id="Notification">
<path id="Vector" fill-rule="evenodd" clip-rule="evenodd" d="M17.7287 15.2172C17.3546 14.9189 17.0651 14.528 16.8887 14.0832C16.1667 12.5632 16.0151 10.4256 16.0151 8.89885C16.0151 8.89205 16.0151 8.88565 16.0151 8.87885C16.0095 7.91762 15.7271 6.97836 15.2016 6.17343C14.6762 5.36851 13.93 4.732 13.0523 4.34005V3.14645C13.0505 2.62396 12.8414 2.12356 12.4709 1.75515C12.1004 1.38675 11.5988 1.18048 11.0763 1.18165H10.9163C10.3941 1.18101 9.89308 1.38751 9.52301 1.75586C9.15294 2.12421 8.94409 2.62431 8.94229 3.14645V4.34005C8.06093 4.73318 7.3121 5.37285 6.78605 6.18193C6.26 6.99102 5.9792 7.93499 5.97749 8.90005C5.97749 10.4268 5.82589 12.566 5.10389 14.0844C4.92754 14.5292 4.63796 14.9201 4.26389 15.2184C4.15877 15.2669 4.07368 15.3503 4.02307 15.4545C3.97247 15.5586 3.95947 15.677 3.98629 15.7896C4.01444 15.9059 4.0812 16.0092 4.17566 16.0826C4.27012 16.1559 4.38668 16.1951 4.50629 16.1936H8.31789C8.33271 16.8938 8.62127 17.5603 9.12169 18.0502C9.62211 18.5402 10.2946 18.8146 10.9949 18.8146C11.6952 18.8146 12.3677 18.5402 12.8681 18.0502C13.3685 17.5603 13.6571 16.8938 13.6719 16.1936H17.4835C17.6031 16.1951 17.7197 16.1559 17.8141 16.0826C17.9086 16.0092 17.9753 15.9059 18.0035 15.7896C18.0302 15.677 18.0172 15.5586 17.9666 15.4545C17.916 15.3504 17.831 15.267 17.7259 15.2184L17.7287 15.2172ZM9.98069 3.14645C9.98164 2.89915 10.0807 2.66235 10.2561 2.48805C10.4316 2.31375 10.669 2.21621 10.9163 2.21685H11.0763C11.3237 2.2161 11.5612 2.3136 11.7367 2.48791C11.9122 2.66222 12.0113 2.89908 12.0123 3.14645V4.00485C11.342 3.86766 10.6509 3.86766 9.98069 4.00485V3.14645ZM10.9963 17.7836C10.5698 17.7841 10.1601 17.6181 9.85425 17.3208C9.54844 17.0236 9.37077 16.6187 9.35909 16.1924H12.6331C12.6214 16.6187 12.4438 17.0235 12.1381 17.3207C11.8323 17.6179 11.4227 17.784 10.9963 17.7836ZM13.0903 15.1572H5.69309C5.79184 15.0035 5.88275 14.8449 5.96549 14.682C6.66229 13.3164 7.01589 11.3708 7.01589 8.89885C7.03072 7.85306 7.45656 6.85512 8.20134 6.12083C8.94613 5.38653 9.95 4.97487 10.9959 4.97487C12.0418 4.97487 13.0457 5.38653 13.7904 6.12083C14.5352 6.85512 14.9611 7.85306 14.9759 8.89885C14.9759 8.90525 14.9759 8.91165 14.9759 8.91805C14.9759 11.38 15.3311 13.318 16.0263 14.6804C16.109 14.8433 16.2 15.0019 16.2987 15.1556H13.0903V15.1572Z" fill="white" stroke="white" stroke-width="0.2"/>
<path id="Vector_2" opacity="0.25" fill-rule="evenodd" clip-rule="evenodd" d="M6.39629 11.6L15.1963 9.19995C15.1963 9.19995 15.3295 11.8 15.9963 13.2C16.6631 14.6 17.1963 15.6 17.1963 15.6H5.19629L6.39629 11.6Z" fill="white"/>
</g>
</g>
</svg>
