<svg width="37" height="36" viewBox="0 0 37 36" fill="none" xmlns="http://www.w3.org/2000/svg">
<g id="profile.svg" clip-path="url(#clip0_2424_615)">
<path id="Vector" d="M18.7764 36C28.7175 36 36.7764 27.9411 36.7764 18C36.7764 8.05888 28.7175 0 18.7764 0C8.83524 0 0.776367 8.05888 0.776367 18C0.776367 27.9411 8.83524 36 18.7764 36Z" fill="#E5E9FB"/>
<path id="Rounded Rectangle 1 copy 2" fill-rule="evenodd" clip-rule="evenodd" d="M13.2561 22.3201H24.2966C25.8878 22.3201 27.4139 22.9522 28.5391 24.0774C29.6642 25.2025 30.2963 26.7286 30.2963 28.3198V28.8001C30.2963 28.991 30.2205 29.1742 30.0855 29.3092C29.9504 29.4442 29.7673 29.5201 29.5763 29.5201C28.1494 30.933 26.4523 32.0438 24.5864 32.7861C22.7205 33.5283 20.7242 33.8868 18.7166 33.8401C11.4763 33.8401 7.97635 29.5201 7.97635 29.5201C7.78539 29.5201 7.60226 29.4442 7.46723 29.3092C7.3322 29.1742 7.25635 28.991 7.25635 28.8001V28.3198C7.25635 26.7286 7.88846 25.2025 9.01364 24.0774C10.1388 22.9522 11.6649 22.3201 13.2561 22.3201Z" fill="#506EE4"/>
<path id="Rounded Rectangle 3" fill-rule="evenodd" clip-rule="evenodd" d="M18.2962 18.2397H19.4964C19.654 18.2397 19.8101 18.2708 19.9557 18.3311C20.1014 18.3914 20.2337 18.4798 20.3451 18.5913C20.4566 18.7027 20.545 18.8351 20.6053 18.9807C20.6656 19.1263 20.6967 19.2824 20.6967 19.44V22.8002C20.6965 23.1184 20.5699 23.4235 20.3449 23.6485C20.1198 23.8734 19.8146 23.9997 19.4964 23.9997H18.2962C17.9779 23.9997 17.6726 23.8733 17.4475 23.6482C17.2224 23.4231 17.0959 23.1178 17.0959 22.7995V19.44C17.0959 19.1217 17.2224 18.8164 17.4475 18.5913C17.6726 18.3662 17.9779 18.2397 18.2962 18.2397Z" fill="#DDB177"/>
<path id="Rounded Rectangle 2" d="M16.1361 9.44995H21.4158C21.731 9.44986 22.0432 9.51186 22.3344 9.63242C22.6257 9.75297 22.8903 9.92972 23.1132 10.1526C23.3361 10.3754 23.5129 10.64 23.6336 10.9312C23.7542 11.2224 23.8163 11.5345 23.8163 11.8497V17.0395C23.8164 17.6383 23.6985 18.2313 23.4694 18.7846C23.2403 19.3379 22.9045 19.8407 22.4811 20.2642C22.0576 20.6877 21.5549 21.0236 21.0017 21.2528C20.4484 21.482 19.8554 21.6 19.2566 21.6H18.2961C17.0868 21.6 15.927 21.1195 15.0719 20.2644C14.2167 19.4093 13.7363 18.2495 13.7363 17.0402V11.8497C13.7363 11.2133 13.9892 10.6029 14.4392 10.1528C14.8892 9.70278 15.4996 9.44995 16.1361 9.44995Z" fill="#F8CA8C"/>
<path id="Vector_2" fill-rule="evenodd" clip-rule="evenodd" d="M23.8071 13.68C23.9995 13.6758 24.1907 13.7099 24.3697 13.7806C24.5486 13.8512 24.7117 13.9569 24.8492 14.0914C24.9867 14.2259 25.096 14.3865 25.1706 14.5639C25.2453 14.7412 25.2837 14.9316 25.2837 15.124C25.2837 15.3164 25.2453 15.5068 25.1706 15.6842C25.096 15.8615 24.9867 16.0221 24.8492 16.1566C24.7117 16.2911 24.5486 16.3968 24.3697 16.4675C24.1907 16.5381 23.9995 16.5723 23.8071 16.568" fill="#BF8434"/>
<path id="Ellipse 2 copy" fill-rule="evenodd" clip-rule="evenodd" d="M13.7456 16.568C13.5533 16.5723 13.362 16.5381 13.1831 16.4675C13.0041 16.3968 12.8411 16.2911 12.7035 16.1566C12.566 16.0221 12.4567 15.8615 12.3821 15.6842C12.3075 15.5068 12.269 15.3164 12.269 15.124C12.269 14.9316 12.3075 14.7412 12.3821 14.5639C12.4567 14.3865 12.566 14.2259 12.7035 14.0914C12.8411 13.9569 13.0041 13.8512 13.1831 13.7806C13.362 13.7099 13.5533 13.6758 13.7456 13.68" fill="#BF8434"/>
<path id="Vector_3" fill-rule="evenodd" clip-rule="evenodd" d="M13.7601 12.8347C15.8412 12.4169 17.8751 11.7912 19.8311 10.967C22.2035 9.83374 23.7443 10.4673 23.7443 12.96C23.7443 12.96 25.5976 6.47998 18.8591 6.47998C12.3215 6.47998 13.7601 12.8347 13.7601 12.8347Z" fill="#925A29"/>
</g>
<defs>
<clipPath id="clip0_2424_615">
<rect width="36" height="36" fill="white" transform="translate(0.776367)"/>
</clipPath>
</defs>
</svg>
