<svg width="18" height="19" viewBox="0 0 18 19" fill="none" xmlns="http://www.w3.org/2000/svg">
<g id="search.svg">
<g id="Search">
<path id="Vector" opacity="0.25" fill-rule="evenodd" clip-rule="evenodd" d="M1.80005 8.13987L11.88 5.61987C11.88 5.61987 13.545 10.3449 8.28005 12.0999C3.01505 13.8549 1.80005 8.13987 1.80005 8.13987Z" fill="#666666"/>
<path id="Vector_2" d="M10.9757 10.7996L16.4837 16.3397M6.94369 1.92706C7.98602 1.922 9.0064 2.22647 9.87553 2.80189C10.7447 3.37731 11.4234 4.19777 11.8258 5.15932C12.2282 6.12087 12.3361 7.18023 12.1358 8.20316C11.9355 9.22609 11.4361 10.1665 10.7008 10.9054C9.96555 11.6442 9.0275 12.1481 8.00554 12.3533C6.98359 12.5585 5.92372 12.4557 4.96025 12.0579C3.99678 11.6601 3.17307 10.9853 2.59349 10.119C2.01391 9.2526 1.70455 8.23369 1.7046 7.19134C1.70295 6.50168 1.83715 5.81845 2.09954 5.18065C2.36193 4.54285 2.74738 3.96298 3.23387 3.47415C3.72037 2.98532 4.29838 2.59709 4.93491 2.33164C5.57144 2.06619 6.25402 1.92872 6.94369 1.92706Z" stroke="#666666" stroke-width="1.08" stroke-linecap="round"/>
</g>
</g>
</svg>
