<svg width="20" height="20" viewBox="0 0 20 20" fill="none" xmlns="http://www.w3.org/2000/svg">
<g id="Business and finance" clip-path="url(#clip0_2419_825)">
<path id="Vector" d="M19.9638 16.1916C19.87 15.74 19.6045 15.3541 19.2162 15.1049C18.8278 14.8559 18.3665 14.7755 17.9167 14.8783L15.8321 15.3556V14.5034C16.2501 14.1096 16.6855 13.5954 16.9951 13.1254C17.538 12.3013 17.9222 11.3963 18.1371 10.436C18.3925 9.29361 18.398 8.0842 18.1528 6.93811C18.1076 6.72723 17.8999 6.59265 17.6891 6.63797C17.478 6.68298 17.3437 6.89065 17.3888 7.10168C17.6106 8.13821 17.6057 9.23227 17.3746 10.2654C17.1805 11.1331 16.8332 11.9508 16.3426 12.6956C16.1972 12.9163 16.0208 13.148 15.8321 13.3692V9.0394C15.8321 8.82364 15.6572 8.64877 15.4414 8.64877H12.3514V4.47733C12.3514 4.26218 12.1773 4.08746 11.9621 4.0867L8.48144 4.07495C8.48099 4.07495 8.48068 4.07495 8.48022 4.07495C8.37677 4.07495 8.27759 4.11584 8.2045 4.18893C8.13095 4.26218 8.0896 4.36166 8.0896 4.46558V6.63553H4.99908C4.78348 6.63553 4.60846 6.81039 4.60846 7.02615V10.8944H3.7381V10.3639C3.7381 10.1483 3.56323 9.97339 3.34747 9.97339H2.94678C2.87857 9.59787 2.83905 9.2164 2.82974 8.83554C2.80685 7.90948 2.95364 7.00342 3.26584 6.14221C3.33862 5.94141 3.42132 5.74121 3.5115 5.54742C3.6026 5.35181 3.51776 5.11942 3.3223 5.02832C3.12668 4.93753 2.89429 5.02206 2.80334 5.21768C2.7034 5.43222 2.61185 5.65378 2.53143 5.87595C2.18597 6.82886 2.02362 7.83121 2.04864 8.85477C2.05795 9.22891 2.09366 9.60336 2.15424 9.97339H0.390625C0.174866 9.97339 0 10.1483 0 10.364V17.2302C0 17.4459 0.174866 17.6208 0.390625 17.6208H3.34747C3.56323 17.6208 3.7381 17.4459 3.7381 17.2302V16.8588H5.20752L11.1598 19.1934C11.7155 19.4114 12.2977 19.5211 12.8828 19.5211C13.273 19.5211 13.6649 19.4723 14.0507 19.3742L18.7161 18.1884C19.6017 17.9633 20.1497 17.0863 19.9638 16.1916ZM15.051 9.43002V15.5345L14.0066 15.7736C13.8943 15.7992 13.7808 15.8195 13.6667 15.8354C13.2315 15.8953 12.7875 15.8827 12.3569 15.7974C12.355 15.7969 12.3532 15.7966 12.3514 15.7961V15.2038C12.6492 14.7595 12.748 14.1961 12.5919 13.6819C12.5484 13.5384 12.4866 13.4001 12.408 13.2723C12.3901 13.2433 12.3715 13.215 12.3521 13.1872C12.352 13.1867 12.3517 13.1864 12.3514 13.186V9.42987H15.051V9.43002ZM8.87085 4.85757L11.5703 4.86658V12.5655L10.0616 11.9412L8.87085 11.4481V4.85757ZM5.38971 7.41678H8.08914V11.1245L7.60467 10.924C7.55722 10.9043 7.50641 10.8943 7.45529 10.8943H5.38971V7.41678ZM2.95685 16.8395H0.78125V10.7545H2.62421C2.62497 10.7545 2.62588 10.7546 2.6268 10.7546C2.62756 10.7546 2.62817 10.7545 2.62894 10.7545H2.95685V16.8395ZM18.5237 17.4313L13.8583 18.617C13.053 18.8217 12.2185 18.7693 11.445 18.4661L5.42404 16.1045C5.37857 16.0867 5.3302 16.0777 5.28137 16.0777H3.7381V11.6757H7.37747L9.90494 12.7218L11.288 13.2943C11.7773 13.4973 12.0116 14.0713 11.8109 14.56C11.7706 14.6581 11.7207 14.7514 11.6545 14.8345C11.4099 15.1432 11.0072 15.2793 10.6306 15.1878C10.6276 15.187 10.6245 15.1862 10.6215 15.1855C10.5989 15.1798 10.5765 15.1733 10.5542 15.166L7.92587 14.1555C7.90451 14.1473 7.89322 14.143 7.89322 14.143C7.69195 14.0655 7.46597 14.166 7.38846 14.3675C7.31109 14.5687 7.4115 14.7949 7.61291 14.8722C7.61291 14.8722 9.09485 15.442 10.2249 15.8778C10.2476 15.8866 10.2702 15.8949 10.293 15.9025L11.1607 16.2362C11.423 16.3371 11.6841 16.4375 11.9571 16.5072C12.4207 16.6256 12.9018 16.6732 13.3797 16.6471C13.6491 16.6325 13.9181 16.5952 14.1812 16.5351L15.5287 16.2267C15.5301 16.2264 15.5315 16.2258 15.5328 16.2255L18.0911 15.6399C18.3345 15.5842 18.5843 15.6277 18.7942 15.7624C19.0045 15.8973 19.1481 16.1062 19.1989 16.3506C19.2996 16.8348 19.003 17.3095 18.5237 17.4313Z" fill="#1E6641"/>
<path id="Vector_2" d="M4.99533 3.28613C5.08871 3.28613 5.1824 3.25287 5.25701 3.18542C5.95404 2.55585 6.7864 2.05368 7.66455 1.73309C8.61593 1.3858 9.65887 1.23764 10.6807 1.30478C11.4121 1.35284 12.1287 1.50894 12.8104 1.76865C13.0118 1.8454 13.2377 1.74438 13.3144 1.54266C13.3913 1.34109 13.2902 1.11542 13.0884 1.03866C12.334 0.751189 11.5412 0.57846 10.732 0.525207C9.60256 0.451049 8.44915 0.614928 7.3966 0.999297C6.42507 1.35391 5.50421 1.90948 4.73349 2.60559C4.57327 2.75024 4.56076 2.99728 4.70541 3.15735C4.78247 3.2428 4.88867 3.28613 4.99533 3.28613Z" fill="#1E6641"/>
<path id="Vector_3" d="M13.8628 6.07381C13.9368 6.13805 14.0281 6.16948 14.1189 6.16948C14.228 6.16948 14.3366 6.12401 14.414 6.03521L17.6278 2.33571C17.7694 2.1729 17.752 1.92617 17.5892 1.78472C17.4262 1.64327 17.1796 1.66051 17.0382 1.82332L13.8242 5.52282C13.6826 5.68563 13.7 5.93236 13.8628 6.07381Z" fill="#1E6641"/>
<path id="Vector_4" d="M16.7429 4.40381C16.2021 4.40381 15.7622 4.84372 15.7622 5.38449C15.7622 5.92526 16.2021 6.36517 16.7429 6.36517C17.2837 6.36517 17.7236 5.92511 17.7236 5.38449C17.7236 4.84372 17.2837 4.40381 16.7429 4.40381ZM16.7429 5.58392C16.6329 5.58392 16.5435 5.49451 16.5435 5.38449C16.5435 5.27463 16.6329 5.18506 16.7429 5.18506C16.8528 5.18506 16.9423 5.27463 16.9423 5.38449C16.9423 5.49451 16.8528 5.58392 16.7429 5.58392Z" fill="#1E6641"/>
<path id="Vector_5" d="M14.5737 3.53436C15.1145 3.53436 15.5544 3.09445 15.5544 2.55368C15.5544 2.01291 15.1145 1.573 14.5737 1.573C14.0329 1.573 13.593 2.01291 13.593 2.55368C13.593 3.09445 14.0329 3.53436 14.5737 3.53436ZM14.5737 2.3541C14.6837 2.3541 14.7731 2.44366 14.7731 2.55368C14.7731 2.66354 14.6837 2.75311 14.5737 2.75311C14.4637 2.75311 14.3743 2.66354 14.3743 2.55368C14.3743 2.44366 14.4637 2.3541 14.5737 2.3541Z" fill="#1E6641"/>
<path id="Vector_6" d="M3.60658 4.20407C3.66914 4.35421 3.8231 4.45339 3.98622 4.44485C4.1475 4.43646 4.2888 4.32736 4.33869 4.17416C4.38905 4.01959 4.33412 3.8435 4.20487 3.74478C4.07319 3.64437 3.88825 3.63812 3.75032 3.72982C3.59727 3.8316 3.53593 4.03454 3.60658 4.20407Z" fill="#1E6641"/>
</g>
<defs>
<clipPath id="clip0_2419_825">
<rect width="20" height="20" fill="white"/>
</clipPath>
</defs>
</svg>
