<svg width="20" height="20" viewBox="0 0 20 20" fill="none" xmlns="http://www.w3.org/2000/svg">
<g id="Deal" clip-path="url(#clip0_2419_851)">
<g id="Group">
<g id="Group_2">
<path id="Vector" d="M9.67664 5.19576C9.52406 5.19576 9.33695 5.17346 9.20882 5.03068C9.16429 4.98053 9.12527 4.93369 9.08742 4.89463C8.78222 4.57346 8.25652 5.01955 8.57507 5.43658L8.65191 5.53584C8.70203 5.59834 8.79226 5.6708 8.92144 5.75334C9.04734 5.83357 9.18765 5.89158 9.34359 5.92615V6.47709C9.34359 6.66666 9.49836 6.82279 9.68777 6.82279C9.87824 6.82279 10.0397 6.66666 10.0397 6.47709V5.92283C10.2892 5.8649 10.5031 5.7433 10.6779 5.55932C10.8539 5.37525 10.9419 5.13107 10.9419 4.82662C10.9419 4.6192 10.9018 4.44639 10.8216 4.30693C10.7414 4.16865 10.6434 4.07166 10.5264 4.01697C10.4084 3.96232 10.2803 3.91436 10.1388 3.87314C9.99851 3.83189 9.87043 3.80287 9.75234 3.78506C9.63543 3.76826 9.53742 3.73256 9.45718 3.68021C9.37699 3.62662 9.33691 3.55752 9.33691 3.47162C9.33691 3.06127 9.93836 3.11143 10.2034 3.33447C10.5944 3.66346 11.0321 3.06127 10.5787 2.72115L10.5264 2.67428C10.4907 2.64646 10.4284 2.61186 10.3382 2.56834C10.2491 2.5249 10.1488 2.49252 10.0397 2.46908V2.13568V1.99072C10.0397 1.80111 9.88484 1.64502 9.69441 1.64502C9.50503 1.64502 9.34914 1.80107 9.34914 1.99072V2.46354C9.09515 2.51373 8.88464 2.63979 8.73879 2.82596C8.59175 3.01557 8.51714 3.22525 8.51714 3.45936C8.51714 3.69471 8.57175 3.88764 8.68086 4.04041C8.79 4.19311 8.92257 4.30021 9.07961 4.36268C9.23554 4.42514 9.39144 4.47533 9.54738 4.51209C9.70441 4.55006 9.83699 4.59127 9.94609 4.63924C10.0553 4.68607 10.1098 4.75189 10.1098 4.83775C10.1099 5.07639 9.96511 5.19576 9.67664 5.19576Z" fill="black"/>
<path id="Vector_2" d="M19.5871 11.2831L16.3774 7.1719C16.1612 6.89424 15.8334 6.73499 15.4781 6.73499C15.2274 6.73499 14.99 6.8146 14.7908 6.96573L12.6902 8.56698C12.4498 8.75022 12.2962 9.01616 12.2576 9.31577C12.2519 9.36042 12.2492 9.40495 12.2487 9.44924C11.4479 9.38858 10.6208 9.44956 9.81757 9.97167L9.78155 9.99506L7.74956 9.68432C7.75374 9.61397 7.75148 9.54276 7.74222 9.47131C7.70347 9.17241 7.55011 8.9071 7.31015 8.72413L5.20905 7.12436C4.71679 6.74792 4.00503 6.83936 3.62226 7.32874L2.8571 8.30901C2.72319 8.48049 2.75374 8.72803 2.92523 8.86186C3.09675 8.99577 3.34429 8.96522 3.47816 8.79374L4.24308 7.81381C4.35886 7.66577 4.58206 7.63663 4.73112 7.75065L6.83269 9.35081C6.90386 9.40506 6.94941 9.48381 6.96089 9.57264C6.97241 9.66159 6.94839 9.74963 6.89355 9.82006L3.68323 13.932C3.56823 14.0797 3.34476 14.1085 3.19593 13.9957L1.09526 12.3943C1.0237 12.3398 0.97796 12.2607 0.966515 12.1717C0.955148 12.0832 0.979171 11.9958 1.03444 11.9251L1.58023 11.226C1.71409 11.0545 1.68358 10.8069 1.51206 10.6731C1.34058 10.5392 1.09304 10.5698 0.959132 10.7412L0.413663 11.44C0.227843 11.6776 0.146671 11.9731 0.185108 12.2721C0.223585 12.5717 0.377257 12.8376 0.617647 13.0208L2.71898 14.6228C2.92347 14.7779 3.16515 14.853 3.40526 14.8529C3.54413 14.8529 3.6823 14.8274 3.81257 14.7782L4.08452 15.1506C3.93671 15.4203 3.91366 15.7442 4.03245 16.0568C4.20226 16.5038 4.60292 16.8068 5.0364 16.8212C5.04984 16.8849 5.06847 16.9485 5.0939 17.0115C5.26862 17.4445 5.66761 17.7392 6.09632 17.7585C6.09827 17.7698 6.09976 17.7811 6.10206 17.7923C6.18362 18.1887 6.48773 18.5273 6.87675 18.6548C6.97585 18.6873 7.07577 18.704 7.17472 18.7069C7.21261 18.8665 7.29183 19.0206 7.41358 19.156C7.60339 19.3669 7.8805 19.5019 8.18448 19.5019C8.40522 19.5019 8.64019 19.4303 8.86601 19.2652L9.31206 19.6821C9.53929 19.8942 9.8253 20 10.1086 20C10.3959 20 10.6804 19.8911 10.8976 19.6737C11.0271 19.544 11.1275 19.3898 11.1924 19.2274C11.3031 19.261 11.4112 19.2769 11.515 19.2769C11.8071 19.2769 12.065 19.1535 12.2497 18.9633C12.4008 18.8076 12.509 18.6004 12.5569 18.3795C12.5728 18.3803 12.5888 18.381 12.6049 18.3811C12.6088 18.3812 12.6127 18.3812 12.6166 18.3812C12.9273 18.3812 13.2255 18.2608 13.436 18.0499C13.5835 17.9023 13.685 17.7205 13.7334 17.5221C13.8086 17.5367 13.8841 17.5444 13.9594 17.5444C14.0542 17.5444 14.1487 17.5326 14.2419 17.5088C14.6218 17.4114 14.9151 17.1146 15.0074 16.734C15.0926 16.3828 15.0048 16.0128 14.7659 15.6766C15.3846 15.1789 15.6348 14.9337 15.9174 14.4752C16.1105 14.6172 16.3455 14.6955 16.5938 14.6955H16.5939C16.8454 14.6955 17.0832 14.6153 17.2809 14.464L19.3828 12.8637C19.6226 12.6809 19.776 12.4156 19.8147 12.1167C19.8535 11.8174 19.7728 11.5215 19.5871 11.2831ZM5.24249 15.9526C5.18214 16.0071 5.12362 16.0348 5.06851 16.0348C4.95538 16.0348 4.82382 15.9216 4.7689 15.7771C4.71905 15.6458 4.7423 15.5361 4.83823 15.4509L4.83948 15.4498C4.83987 15.4494 4.8403 15.449 4.84069 15.4487L6.1678 14.2691C6.27882 14.1706 6.39054 14.1186 6.49097 14.1186C6.63792 14.1186 6.7478 14.2302 6.78769 14.3339C6.83034 14.4448 6.80468 14.5436 6.71187 14.6276L6.48054 14.8362C6.48034 14.8364 6.48011 14.8365 6.47991 14.8367C6.47878 14.8377 6.47769 14.8387 6.47655 14.8398C6.46827 14.8473 6.45972 14.855 6.45128 14.8626L5.24249 15.9526ZM6.31519 16.8941C6.25538 16.947 6.19839 16.9726 6.14105 16.9726C6.02148 16.9726 5.88245 16.8602 5.82452 16.7167C5.76069 16.5585 5.83644 16.4855 5.86038 16.4624C5.87577 16.4476 5.89425 16.4299 5.91351 16.4093C5.91362 16.4092 5.91374 16.4091 5.91386 16.409L5.91792 16.4054C5.9937 16.3377 6.66101 15.7348 6.97984 15.4467L7.00358 15.4253C7.11163 15.3305 7.22109 15.2803 7.32026 15.2803C7.47667 15.2803 7.59312 15.4 7.63511 15.5112C7.67687 15.6217 7.65183 15.7185 7.56097 15.7985L7.47925 15.8704C7.47862 15.8709 7.47804 15.8714 7.47745 15.8719C7.47726 15.8721 7.47706 15.8723 7.47687 15.8725L6.31519 16.8941ZM7.48933 17.7444C7.4839 17.7493 7.47878 17.7544 7.47351 17.7594L7.38108 17.8428C7.29894 17.917 7.21667 17.9372 7.12214 17.9062C7.00265 17.867 6.89827 17.7524 6.87382 17.6336C6.85257 17.5304 6.8939 17.4347 6.99882 17.3422L7.13026 17.2273C7.13358 17.2244 7.13644 17.2213 7.13964 17.2183L8.00066 16.4611C8.20698 16.2787 8.41132 16.2604 8.54733 16.4125C8.56647 16.4339 8.72866 16.6267 8.53065 16.8056L8.00187 17.2827C7.9962 17.2877 7.99046 17.2922 7.98483 17.2973C7.98284 17.2992 7.9812 17.3013 7.97925 17.3031L7.49538 17.7397C7.49343 17.7414 7.49124 17.7426 7.48933 17.7444ZM7.99933 18.629C7.9578 18.5829 7.87773 18.4634 8.00909 18.3373L8.53659 17.8613C8.57651 17.8271 8.61499 17.8001 8.65101 17.7815C8.65265 17.7806 8.65433 17.7798 8.65597 17.7789C8.86858 17.6653 8.98382 17.7977 9.01413 17.841C9.05308 17.8966 9.10058 18.0058 8.98116 18.1131L8.61976 18.438C8.61839 18.4392 8.61706 18.4404 8.61569 18.4416L8.45901 18.5824C8.20155 18.8135 8.04206 18.6766 7.99933 18.629ZM14.2417 16.5483C14.2175 16.6481 14.1463 16.72 14.0464 16.7456C13.8807 16.788 13.6709 16.696 13.4789 16.499C13.4644 16.483 13.4497 16.4673 13.4342 16.4521L11.9473 14.9823C11.7925 14.8294 11.5431 14.8308 11.3902 14.9855C11.2373 15.1403 11.2387 15.3897 11.3934 15.5426L12.878 17.0101C12.8804 17.0127 12.883 17.0153 12.8854 17.0179C12.9447 17.0789 12.9777 17.1604 12.978 17.2486C12.9784 17.3417 12.9431 17.4286 12.8785 17.4932C12.8149 17.557 12.7197 17.5933 12.6168 17.5933C12.6154 17.5933 12.614 17.5933 12.6125 17.5933C12.5214 17.5924 12.4383 17.5619 12.3798 17.5087C12.3551 17.4768 12.3283 17.4459 12.2988 17.4163L11.2117 16.3279C11.058 16.174 10.8086 16.1739 10.6546 16.3276C10.5007 16.4813 10.5006 16.7307 10.6543 16.8846L11.6852 17.9168C11.6976 17.935 11.7114 17.9525 11.7273 17.9689L11.7711 18.0141C11.8276 18.1217 11.7926 18.3031 11.6844 18.4146C11.5175 18.5865 11.2825 18.4349 11.1151 18.2777L10.6495 17.8394C10.4911 17.6903 10.2418 17.6978 10.0927 17.8562C9.94355 18.0147 9.95109 18.264 10.1095 18.4131L10.4651 18.7478C10.466 18.7487 10.4667 18.7496 10.4675 18.7503C10.4757 18.7579 10.4879 18.7694 10.4885 18.8091C10.49 18.9014 10.4291 19.028 10.3403 19.1169C10.2107 19.2466 9.99515 19.242 9.84987 19.1064L9.46003 18.742L9.50769 18.6992C9.89425 18.3521 9.95663 17.8133 9.65941 17.389C9.56269 17.251 9.44155 17.1437 9.30566 17.0692C9.49722 16.6915 9.44366 16.2328 9.13448 15.8872C8.96007 15.6922 8.7137 15.559 8.4387 15.5296C8.43085 15.4307 8.40921 15.3311 8.37214 15.2329C8.23831 14.8786 7.94085 14.6178 7.59077 14.5275C7.60534 14.3706 7.58366 14.2085 7.52304 14.0509C7.35722 13.6202 6.94253 13.3307 6.49101 13.3307C6.19491 13.3307 5.90241 13.4514 5.64476 13.6799L4.63901 14.5739L4.41792 14.2712L7.41659 10.4304L8.78761 10.6401L8.58019 10.7746C7.46925 11.4954 7.38792 12.3337 7.6823 12.8778C7.91788 13.3134 8.38808 13.5624 8.88718 13.5624C9.09265 13.5624 9.30312 13.5202 9.50401 13.4314C9.50933 13.429 9.5146 13.4266 9.51976 13.424L10.5584 12.909L11.1579 13.4549C11.1585 13.4555 11.1591 13.4559 11.1597 13.4564C11.1603 13.4569 11.1607 13.4575 11.1613 13.458L13.9325 15.9226C14.17 16.1337 14.2856 16.3676 14.2417 16.5483ZM14.2086 15.1139L11.6866 12.8709L10.8897 12.1453C10.7697 12.036 10.5949 12.0115 10.4495 12.0837L9.17827 12.714C8.83288 12.8626 8.49316 12.7212 8.37519 12.5031C8.21308 12.2034 8.45589 11.7944 9.00894 11.4356L10.2466 10.6324C10.9177 10.1962 11.6217 10.1625 12.5847 10.2743L15.3732 13.8472C15.0789 14.3756 14.9226 14.5434 14.2086 15.1139ZM19.0334 12.0154C19.0219 12.1041 18.9764 12.1828 18.9053 12.237L16.8029 13.8377C16.7274 13.8955 16.6476 13.9076 16.5939 13.9076C16.4834 13.9076 16.3819 13.8589 16.3159 13.7744L13.1067 9.66245C13.0517 9.5921 13.0276 9.50467 13.0391 9.41616C13.0505 9.32717 13.0962 9.24807 13.1678 9.1935L15.2677 7.59276C15.3439 7.53499 15.4241 7.52284 15.4781 7.52284C15.5887 7.52284 15.6899 7.57131 15.756 7.65627L18.9657 11.7676C19.0209 11.8384 19.045 11.9264 19.0334 12.0154Z" fill="black"/>
<path id="Vector_3" d="M7.68867 8.00246C8.30715 8.33617 9.00578 8.51258 9.70906 8.51258C12.0537 8.51258 13.9612 6.60293 13.9612 4.2557C13.9612 2.6175 13.0048 1.1068 11.525 0.40707C10.9549 0.136953 10.344 0 9.70906 0C7.365 0 5.45801 1.9091 5.45801 4.2557C5.45801 5.82078 6.3125 7.25633 7.68867 8.00246ZM9.70906 0.787812C10.2264 0.787812 10.7238 0.899258 11.1879 1.1191C12.394 1.68938 13.1733 2.92059 13.1733 4.2557C13.1733 6.16855 11.6193 7.72477 9.7091 7.72477C9.13598 7.72477 8.56672 7.58102 8.06352 7.30953C6.94234 6.7016 6.24586 5.53145 6.24586 4.2557C6.24586 2.34352 7.79941 0.787812 9.70906 0.787812Z" fill="black"/>
<path id="Vector_4" d="M1.97293 10.0747C2.04547 10.1326 2.13223 10.1607 2.2184 10.1607C2.3341 10.1607 2.44875 10.11 2.52653 10.0125L2.53098 10.0069C2.66668 9.83688 2.63883 9.58903 2.46879 9.45332C2.29875 9.3177 2.05086 9.34543 1.9152 9.51555L1.91074 9.52114C1.77504 9.69117 1.80289 9.93903 1.97293 10.0747Z" fill="black"/>
</g>
</g>
</g>
<defs>
<clipPath id="clip0_2419_851">
<rect width="20" height="20" fill="white"/>
</clipPath>
</defs>
</svg>
