<svg width="20" height="20" viewBox="0 0 20 20" fill="none" xmlns="http://www.w3.org/2000/svg">
<g id="Medal" clip-path="url(#clip0_2419_838)">
<g id="Group">
<path id="Vector" d="M4.17969 7.42188C4.17969 10.6528 6.80817 13.2813 10.0391 13.2813C13.27 13.2813 15.8985 10.6528 15.8985 7.42188C15.8985 4.19098 13.27 1.5625 10.0391 1.5625C6.80817 1.5625 4.17969 4.19098 4.17969 7.42188ZM10.0391 2.34375C12.8392 2.34375 15.1172 4.62174 15.1172 7.42188C15.1172 10.222 12.8392 12.5 10.0391 12.5C7.23893 12.5 4.96094 10.222 4.96094 7.42188C4.96094 4.62174 7.23893 2.34375 10.0391 2.34375Z" fill="#020202"/>
<path id="Vector_2" d="M6.42155 6.72547L7.93568 8.21732L7.58732 10.314C7.56306 10.4601 7.62333 10.6072 7.74311 10.6941C7.86274 10.7811 8.02128 10.7929 8.15266 10.7248L10.0391 9.74519L11.9254 10.7248C12.0557 10.7924 12.2142 10.7819 12.3349 10.6941C12.4547 10.6072 12.515 10.4601 12.4907 10.314L12.1424 8.21732L13.6565 6.72547C13.762 6.62171 13.7996 6.46729 13.7539 6.32645C13.7081 6.18576 13.5868 6.08307 13.4404 6.06095L11.3392 5.74463L10.3884 3.84323C10.3223 3.71094 10.187 3.62732 10.0391 3.62732C9.89109 3.62732 9.7559 3.71094 9.68968 3.84323L8.7389 5.74463L6.63761 6.06095C6.49128 6.08292 6.36997 6.18576 6.32419 6.32645C6.27842 6.46729 6.31626 6.62171 6.42155 6.72547ZM9.05583 6.48697C9.18156 6.46805 9.2902 6.38916 9.34712 6.27549L10.0391 4.89136L10.7311 6.27549C10.788 6.38916 10.8966 6.46805 11.0224 6.48697L12.5518 6.71723L11.4496 7.80289C11.3591 7.89216 11.3176 8.01987 11.3384 8.1453L11.592 9.67133L10.219 8.95844C10.1627 8.92915 10.1009 8.9145 10.0391 8.9145C9.97731 8.9145 9.91551 8.92915 9.85905 8.95844L8.48606 9.67133L8.73966 8.1453C8.76057 8.01987 8.71906 7.89216 8.62843 7.80289L7.52644 6.71723L9.05583 6.48697Z" fill="#020202"/>
<path id="Vector_3" d="M10.4297 0.390626C10.4297 0.606385 10.2548 0.781251 10.0391 0.781251C9.8233 0.781251 9.64844 0.606385 9.64844 0.390626C9.64844 0.174866 9.8233 0 10.0391 0C10.2548 0 10.4297 0.174866 10.4297 0.390626Z" fill="#020202"/>
<path id="Vector_4" d="M8.1981 0.230267C4.91211 1.06904 2.61719 4.02635 2.61719 7.4219C2.61719 9.53082 3.50388 11.518 5.06043 12.9253L2.70706 17.0728C2.63138 17.2063 2.64084 17.3717 2.73117 17.4956C2.8215 17.6197 2.97592 17.6793 3.12622 17.648L5.7988 17.0931L6.73813 19.74C6.7891 19.8841 6.91956 19.9849 7.07185 19.9985C7.22413 20.0121 7.37015 19.9353 7.44569 19.8024L10.0391 15.2431L12.6323 19.8024C12.7022 19.9253 12.8322 19.9999 12.9717 19.9999C12.9831 19.9999 12.9947 19.9994 13.0062 19.9985C13.1584 19.9849 13.2889 19.8839 13.34 19.74L14.2792 17.0931L16.9518 17.648C17.1019 17.6792 17.2565 17.6195 17.3468 17.4956C17.4373 17.3717 17.4466 17.2063 17.3709 17.0728L15.0176 12.9253C16.5741 11.518 17.4608 9.53082 17.4608 7.4219C17.4608 4.02635 15.1659 1.06904 11.88 0.230267C11.6709 0.176861 11.4583 0.303052 11.4049 0.512097C11.3515 0.721143 11.4777 0.933851 11.6867 0.987257C14.6265 1.73769 16.6797 4.38372 16.6797 7.4219C16.6797 11.1196 13.6766 14.0625 10.0391 14.0625C6.39893 14.0625 3.39844 11.1171 3.39844 7.4219C3.39844 4.38372 5.45151 1.73769 8.39127 0.987257C8.60032 0.933851 8.72651 0.721143 8.67326 0.512097C8.61985 0.303052 8.4073 0.176861 8.1981 0.230267ZM7.18888 18.6741L6.42121 16.5108C6.3559 16.3268 6.16486 16.2192 5.97367 16.2589L3.81256 16.7076L5.67505 13.4252C6.76102 14.2147 8.04688 14.6956 9.38401 14.8146L7.18888 18.6741ZM14.1043 16.2589C13.9133 16.2192 13.7221 16.3268 13.6568 16.5108L12.8893 18.6741L10.694 14.8146C12.0313 14.6956 13.317 14.2147 14.4031 13.4252L16.2656 16.7076L14.1043 16.2589Z" fill="#020202"/>
</g>
</g>
<defs>
<clipPath id="clip0_2419_838">
<rect width="20" height="20" fill="white"/>
</clipPath>
</defs>
</svg>
