<svg width="20" height="20" viewBox="0 0 20 20" fill="none" xmlns="http://www.w3.org/2000/svg">
<g id="Speech bubble" clip-path="url(#clip0_2419_865)">
<g id="Group">
<path id="Vector" d="M16.9036 0H3.09637C1.4252 0 0 1.34676 0 3.09637V13.138C0 14.8876 1.42512 16.2344 3.09637 16.2344H4.23914C2.9966 18.2473 1.6248 18.8691 1.6123 18.8747C1.35586 18.9835 1.21145 19.2579 1.26695 19.5309C1.32246 19.8039 1.56254 20 1.84113 20C1.97711 20 5.16914 19.9568 8.98535 16.2344H16.9036C18.575 16.2344 20 14.8875 20 13.138V3.09637C20 1.34684 18.5748 0 16.9036 0ZM18.8281 13.138C18.8281 14.2145 17.9557 15.0625 16.9036 15.0625H8.7448C8.58941 15.0625 8.44039 15.1242 8.33051 15.2341C6.78641 16.7782 5.36418 17.6457 4.31094 18.1294C4.79516 17.5606 5.2993 16.8323 5.75809 15.9093C5.84836 15.7277 5.83828 15.5122 5.73145 15.3398C5.62461 15.1674 5.43621 15.0625 5.2334 15.0625H3.09637C2.04176 15.0625 1.17188 14.2119 1.17188 13.138V3.09637C1.17188 2.01973 2.04461 1.17188 3.09637 1.17188H16.9037C17.9584 1.17188 18.8281 2.02266 18.8281 3.09637V13.138Z" fill="black"/>
<path id="Vector_2" d="M4.21146 3.42131C4.61818 2.76006 3.69107 2.14099 3.23639 2.77131C3.23639 2.77131 2.96639 3.17635 2.6785 3.60908C2.11736 4.42619 2.73037 5.57787 3.72396 5.56506C4.04756 5.56506 4.3099 5.30271 4.3099 4.97912C4.3099 4.65553 4.04756 4.39318 3.72396 4.39318C3.65533 4.3949 3.61385 4.31506 3.65322 4.25967C3.94174 3.82592 4.21142 3.42139 4.21146 3.42131Z" fill="black"/>
<path id="Vector_3" d="M6.72196 3.42131C7.12868 2.76002 6.20157 2.141 5.74688 2.77131C5.74688 2.77131 5.47688 3.17635 5.18899 3.60909C4.62786 4.42616 5.24087 5.57788 6.23446 5.56506C6.55806 5.56506 6.8204 5.30272 6.8204 4.97913C6.8204 4.65553 6.55806 4.39319 6.23446 4.39319C6.16579 4.39491 6.12438 4.31503 6.16372 4.25967C6.4522 3.82592 6.72192 3.42139 6.72196 3.42131Z" fill="black"/>
<path id="Vector_4" d="M16.2761 10.6693C15.4995 10.6982 15.5001 11.8126 16.2761 11.8412C16.308 11.8412 16.3376 11.8583 16.3518 11.8849C16.3669 11.9132 16.3653 11.9471 16.3468 11.9747C16.0583 12.4084 15.7886 12.813 15.7885 12.813C15.3818 13.4746 16.309 14.0932 16.7636 13.463C16.7636 13.463 17.0336 13.058 17.3215 12.6253C17.8827 11.8083 17.2696 10.6564 16.2761 10.6693Z" fill="black"/>
<path id="Vector_5" d="M13.7656 10.6693C12.989 10.6982 12.9896 11.8126 13.7656 11.8412C13.7975 11.8412 13.8271 11.8583 13.8413 11.8849C13.8563 11.9132 13.8548 11.9471 13.8363 11.9747C13.5478 12.4084 13.2781 12.813 13.278 12.813C12.8713 13.4746 13.7985 14.0932 14.2531 13.463C14.2531 13.463 14.5231 13.058 14.811 12.6253C15.3722 11.8084 14.7591 10.6564 13.7656 10.6693Z" fill="black"/>
</g>
</g>
<defs>
<clipPath id="clip0_2419_865">
<rect width="20" height="20" fill="white"/>
</clipPath>
</defs>
</svg>
